<?xml version="1.0" encoding="utf-8"?>
<!-- Generator: Adobe Illustrator 24.1.2, SVG Export Plug-In . SVG Version: 6.00 Build 0)  -->
<svg version="1.1" id="Layer_1" xmlns="http://www.w3.org/2000/svg" xmlns:xlink="http://www.w3.org/1999/xlink" x="0px" y="0px"
	 viewBox="0 0 587.41 206.26" style="enable-background:new 0 0 587.41 206.26;" xml:space="preserve">
<style type="text/css">
	.st0{fill:#FFFFFF;}
	.st2{fill:#f56d23;}
</style>
<path class="st0" d="M587.41,206.22c-0.04,0-0.09-0.06-0.13-0.06c-0.08-0.06-0.13-0.11-0.26-0.17
	C575.7,199.47,332.19,58.54,293.7,58.54S11.7,199.47,0.38,206c-0.13,0.06-0.17,0.11-0.26,0.17c-0.04,0-0.09,0.06-0.13,0.06
	c0.04,0,0.08-0.06,0.13-0.11C7.83,199.86,254.92,0,293.7,0s285.87,199.86,293.58,206.1C587.32,206.16,587.36,206.22,587.41,206.22z"
	/>
<path class="st2" d="M585.27,205.56c0.97,0.32,1.73,0.57,2.01,0.66c-0.73-0.31-4.01-1.72-9.16-3.88
	C335.7,92.8,262.8,88.06,262.8,88.06c14.92,9.5,24.88,16.71,31.57,22.07c-0.21,0-0.46-0.03-0.67-0.03
	c-67.05,0-286.72,93.21-293.58,96.11c6.85-2.23,226.53-73.81,293.58-73.81c25.88,0,72.57,10.03,121.22,22.7l171.9,51.16
	C586.29,206.02,585.8,205.8,585.27,205.56z"/>
</svg>
